<svg xmlns="http://www.w3.org/2000/svg" width="208.616" height="64.09" viewBox="0 0 208.616 64.09">
  <g id="lattice_logo" data-name="lattice logo" transform="translate(-32.384 -117.079)">
    <text id="Lattice_JS" data-name="Lattice JS" transform="translate(107 157)" fill="#fff" font-size="24" font-family="Helvetica" letter-spacing="0.01em"><tspan x="0" y="0">LATTICE JS</tspan></text>
    <g id="logo" transform="matrix(0.985, 0.174, -0.174, 0.985, 40.474, 114.412)">
      <path id="Path_2" data-name="Path 2" d="M23.5,13.492H7.8L0,27.447,7.757,40.408l15.777-.325L30.7,26.914,22.808,13.682,30.763,0h15.4l7.376,13.682L46.16,26.914l7.832,13.493L46.16,53.91H30.7L23.533,40.082" transform="translate(2.52 2.969)" fill="none" stroke="#fff" stroke-linecap="round" stroke-linejoin="round" stroke-width="1.2"/>
      <path id="Path_3" data-name="Path 3" d="M0,0H17.081" transform="translate(32.406 29.924)" fill="none" stroke="#fff" stroke-linecap="round" stroke-width="1.2"/>
      <path id="Path_4" data-name="Path 4" d="M0,0" transform="translate(26.19 42.942) rotate(45)" fill="none" stroke="#707070" stroke-linecap="round" stroke-width="4"/>
      <circle id="Ellipse_1" data-name="Ellipse 1" cx="2.636" cy="2.636" r="2.636" transform="translate(30.517 27.096)" fill="#fff"/>
      <circle id="Ellipse_16" data-name="Ellipse 16" cx="2.636" cy="2.636" r="2.636" transform="translate(31.281 53.516)" fill="#fff"/>
      <circle id="Ellipse_10" data-name="Ellipse 10" cx="2.636" cy="2.636" r="2.636" transform="translate(30.371 0.376)" fill="#fff"/>
      <circle id="Ellipse_4" data-name="Ellipse 4" cx="2.636" cy="2.636" r="2.636" transform="translate(7.824 40.414)" fill="#fff"/>
      <circle id="Ellipse_15" data-name="Ellipse 15" cx="2.636" cy="2.636" r="2.636" transform="translate(8.223 13.583)" fill="#fff"/>
      <circle id="Ellipse_2" data-name="Ellipse 2" cx="3.041" cy="3.041" r="3.041" transform="translate(46.079 26.943)" fill="#fbda04"/>
      <circle id="Ellipse_9" data-name="Ellipse 9" cx="2.636" cy="2.636" r="2.636" transform="translate(46.04 53.468)" fill="#fff"/>
      <circle id="Ellipse_11" data-name="Ellipse 11" cx="2.636" cy="2.636" r="2.636" transform="translate(46.336 0)" fill="#fff"/>
      <circle id="Ellipse_5" data-name="Ellipse 5" cx="3.041" cy="3.041" r="3.041" transform="translate(23.126 39.815)" fill="#fbda04"/>
      <circle id="Ellipse_13" data-name="Ellipse 13" cx="2.636" cy="2.636" r="2.636" transform="translate(53.473 40.613)" fill="#fff"/>
      <circle id="Ellipse_7" data-name="Ellipse 7" cx="3.041" cy="3.041" r="3.041" transform="translate(21.822 12.667)" fill="#fbda04"/>
      <circle id="Ellipse_12" data-name="Ellipse 12" cx="2.636" cy="2.636" r="2.636" transform="translate(53.062 13.783)" fill="#fff"/>
      <circle id="Ellipse_3" data-name="Ellipse 3" cx="2.636" cy="2.636" r="2.636" transform="translate(0 27.776)" fill="#fff"/>
    </g>
  </g>
</svg>
