<svg xmlns="http://www.w3.org/2000/svg" xmlns:xlink="http://www.w3.org/1999/xlink" width="39.196" height="39.196" viewBox="0 0 39.196 39.196">
  <defs>
    <linearGradient id="linear-gradient" x1="0.005" y1="0.005" x2="0.978" y2="0.978" gradientUnits="objectBoundingBox">
      <stop offset="0" stop-color="#14b0b6"/>
      <stop offset="0.817" stop-color="#86cdd3"/>
    </linearGradient>
    <linearGradient id="linear-gradient-2" x1="0.306" y1="0.306" x2="0.97" y2="0.97" xlink:href="#linear-gradient"/>
  </defs>
  <g id="Group_2" data-name="Group 2" transform="translate(-147.476 -142.807)">
    <g id="Group_1" data-name="Group 1" transform="translate(147.476 142.807)">
      <path id="Path_6" data-name="Path 6" d="M167.067,164.54a17.926,17.926,0,0,0,1.307-3.2,18.9,18.9,0,0,1,1.468-3.535,9.932,9.932,0,0,1,3.617-3.568v-9.306a2.128,2.128,0,0,0-2.128-2.128h-8.514a2.128,2.128,0,0,0-2.129,2.128V156.02H149.6a2.129,2.129,0,0,0-2.129,2.129v8.514a2.129,2.129,0,0,0,2.129,2.129h11A8.733,8.733,0,0,0,167.067,164.54Z" transform="translate(-147.476 -142.807)" fill="url(#linear-gradient)"/>
      <path id="Path_7" data-name="Path 7" d="M232.571,204.047H221.508a8.323,8.323,0,0,0-2.333,2.549,17.512,17.512,0,0,0-1.342,3.258,19.318,19.318,0,0,1-1.426,3.462,10.274,10.274,0,0,1-7.69,5.013V227.9a2.129,2.129,0,0,0,2.129,2.128h8.514a2.128,2.128,0,0,0,2.128-2.128V216.818h11.084a2.129,2.129,0,0,0,2.128-2.129v-8.514A2.129,2.129,0,0,0,232.571,204.047Z" transform="translate(-195.503 -190.834)" fill="url(#linear-gradient-2)"/>
    </g>
    <path id="Path_8" data-name="Path 8" d="M173.407,144.472a2.128,2.128,0,0,0-2.076-1.665h-8.514a2.128,2.128,0,0,0-2.129,2.128V156.02H149.6a2.129,2.129,0,0,0-2.129,2.129v8.514a2.121,2.121,0,0,0,.142.758,16.707,16.707,0,0,0,13.028-6.259A34.265,34.265,0,0,0,164,155.475a36.156,36.156,0,0,1,3.758-6.283A18.725,18.725,0,0,1,173.407,144.472Z" fill="#f1f1f2" opacity="0.25"/>
  </g>
</svg>
